<?xml version="1.0" encoding="utf-8"?>
<!-- Generator: Adobe Illustrator 21.1.0, SVG Export Plug-In . SVG Version: 6.00 Build 0)  -->
<svg version="1.1" id="Layer_1" xmlns="http://www.w3.org/2000/svg" xmlns:xlink="http://www.w3.org/1999/xlink" x="0px" y="0px"
	 viewBox="0 0 3400 979" style="enable-background:new 0 0 3400 979;" xml:space="preserve">
<style type="text/css">
	.st0{fill:#6C9F80;}
</style>
<path id="Logo" class="st0" d="M2672,709c0,28.6,22.7,27,27,27h88c3.3,0,24,1.3,24-27H2672z M2999,645v-65c26.3,0.5,42.6-3.6,64-11
	v81c8.2,21.1,45,57.4,45,62v30c0,6.8-15.4,37.1-42,37h-650c-22.6,0-43-23.4-43-37v-30c0-8.4,45-48.1,46-67V310c0-21.6,22.3-59,64-59
	h522c10.3,0,22.5,5.9,21.9,6.7c-41.6-0.2-110,21.7-140.9,57.3c-134.3,0.3-268.7-0.3-403,0v330h398c-12.3-20.9-13.5-47.9-24-69
	c-23.3-46.9-80.4-99.4-143-112c0.3,0.7,2.7,2.3,3,3c36.9,26.7,93.3,80.2,99,100c-53.4,33.3-123.4-21.9-146-53
	c-13.5-18.5-24.6-42.3-31-67c-8.1-31.3-8.8-93.3,13-107c1.1-0.5,3.2-1,7,4c11.2,23.3,31.9,52.3,66,61c41.2,10.5,69-8.9,105,18
	c13.5,10.1,24.8,26.5,30,45c2.9,10.8,3.3,22.1,1,33c-3.1,13.8-2.8,17.6,10,27c11.8-32.5,15.7-27,21-42c4.4-12.6-9.7-21.1-15-43
	c-9.5-38.9,5.1-75.8,24-96c44.2-47.1,87.3-49.3,128-57c20-3.8,37.9-5.2,55-12c46.9-18.6,66.6-44.9,87.3-76.9
	c0.5-0.7,1.2-1.1,2.1-1.1c4.9,0.3,5.4,0.4,8.3,4.4c0.3,0.4,0.5,0.8,0.6,1.2c42.2,116,1.9,230.8-79.2,301.3
	c-22.7,19.7-70.5,43.5-111,39c-28.3-3.1-37-9.9-51-16c25.5-55.1,79-87.2,113-108c13.4-8.3,25.4-14.5,39-22c-0.3-0.3-1.7-1.7-2-2
	c-24.3,9-92,34-136,73c-14.9,13.2-26.3,28-37,45c-26.7,42.6-31.7,115.8,28,129H2999z"/>
<path id="Title" d="M739,337h32c0,44.1,0,93,0,134h0.3c1.9-4.6,4.6-8.8,8.7-14c10.4-13.3,27.9-24.6,46-30c18.4-5.5,41.7-4.7,59,1
	c32.6,10.7,52.4,30.1,64,62c6.1,17,8.5,35,7,53c-3.3,34.9-17.7,65.7-47,83c-53.3,31.5-117.9,8.4-137-31c-0.2-0.5-0.3-1-1-1v46h-32
	V337z M1907,337h32v302h-32v-46c-2.2,3.8-2.6,6.1-14,20c-8.1,9.9-21.3,17.5-34,22c-26.5,9.4-60.9,3-68,1c-33.4-11.3-52-30.2-64-63
	c-4.2-11.5-8-31-7-49c2.1-35.5,19.8-72.1,53-89c55.5-28.2,115.2-4,133,35c0.3,0,0.7-2,1-2V337z M200,640V354h129c5.2,0,33.7,2,52,15
	c37.5,26.5,37.4,67.6,19,96c-5.5,8.4-13.6,14.5-25,20c-4.6,2.2-6.5,2.6-14,5c31,4.2,50.2,22.8,59,45c12.7,32.1-0.4,68.1-23,84
	c-21.2,14.9-52,21-75,21H200z M233,386v91h90c9.9,0,25.5-0.4,42-14c12.7-10.4,16.9-31.8,11-48c-4.9-13.4-16.7-20.9-29-25
	c-8-2.7-20.6-4-25-4H233z M569,424c48.4,0.3,80.4,20.2,98,50c5.4,9.2,9,20.8,12,32c3.4,12.6,3.3,36.6,1,49
	c-7.7,40.7-37.6,73.9-82,83c-24.3,5-45.7,3.3-68-5c-29-13.6-49.3-30.2-61-68c-6.8-21.9-5.8-56,2-75c9.6-23.4,28.1-45.1,51-55
	C534.8,430,549.2,423.9,569,424z M1578,424c47.4,1.4,78,20.6,97,56c5,9.2,7.6,19.7,10,32c3.1,15.7,1,40.4-2,50
	c-14.3,46.3-42.1,66-76,75c-20.1,5.3-48.1,3.7-65-2c-33.7-11.4-56.7-32-68.5-69.6c-10.9-35.1-0.3-60.8,2.5-73.4
	c9.2-24.9,24.8-44.6,53-58C1533.6,432.5,1549.8,423.7,1578,424z M1331,425c32.8-2.3,58.9,2.1,78,14c7.2,4.5,15.2,10.3,21,17
	c-3.6,4.7-5.6,7.3-18,22c-13.2-10.5-36.3-32.2-84-22c-24.3,5.2-43.3,24.9-52,51c-0.8,2.4-4.4,23.8-3,35c1.8,13.9,5.5,25.6,12,36
	c14.6,23.4,49.3,42.1,91,30c10.7-3.1,22.1-8.4,30-15c3.9-3.2,6.3-6.6,9-9c4.9,5.6,12.1,12.2,18,20c-4.2,4.2-10.5,11.1-16,15
	c-14.3,10.1-26.9,15.5-47,20c-15.5,3.5-44.8,0.8-58-4c-41.3-15.1-58.2-37.5-69-81c-2.6-10.3-2.2-29.8,0-42c1.8-9.8,4.2-19.4,8-28
	c10.5-23.6,28.4-41.8,53-52C1312.6,428.5,1321.7,426.1,1331,425z M2203,545h-175c2.5,42.9,43.1,75.6,100,65
	c25.7-4.8,35.2-17.9,43-24c8.6,9.5,12.9,12.3,18,18c-6.6,6.7-44.1,51.8-123,31c-33.9-9-58-39-68-78c-2.8-11.1-2.3-35.4,0-48
	c1.8-8.9,4.4-17.6,8-26c14.6-33.8,45.5-59,94-59c14,0.6,34.3-0.6,55,12C2187.9,456,2203.3,491.5,2203,545z M2028,518h145
	c0-35.8-24.2-66-71-66C2044.1,452,2028,498.9,2028,518z M848,453c-22.8,0.1-54.7,7.7-69,42c-19,45.5-3.7,93.5,42,112
	c6.1,2.5,30.7,6.7,45,3c29.4-7.6,51.5-29,57-64c4.9-30.8-6.7-51.2-10-59C897.9,465.1,879,454.4,848,453z M1818,453
	c-52.3,5.7-66,53.8-66,80c1.1,41.2,21.5,64.6,51,75c10.2,3.6,26,5.8,40,3c34.4-7,57.3-29.6,63-67c2.7-17.5-2.2-44.2-11-56
	C1873.4,459,1856.9,450.8,1818,453z M567,453c-7.1,0.4-19.1,3-24,5c-20.4,8.6-34.3,23.7-42,45c-13.6,37.6,3.3,78.5,25,94
	c7.8,5.6,15.4,8.8,26,12c9.3,2.8,33.8,2.6,39,1c35.8-10.8,57.1-31.5,59-76c0.3-8.2-1.3-25.9-6-35C630.1,472.2,613.7,452.5,567,453z
	 M1578,454c-13,0-26.3,2.5-32,5c-16.4,7.2-34.2,25.1-41,46c-11.6,35.8,3.2,75.3,23,90c7.6,5.6,15,9.4,25,13c9.7,3.5,35.2,4.4,43,2
	c36.4-11.3,52.5-32,58-66c2.2-13.4-2.6-40-8-50C1631.8,467.9,1612,454.4,1578,454z M233,509.3V608h87.8c8.2,0,25.2-2.5,30.9-4
	c15.3-4.1,25.7-11.9,30.9-19c12.3-16.6,9.9-43.8-3-56.9c-12.2-12.3-32.1-19.2-55.6-19.2C294.7,509,262.8,509.3,233,509.3z M1099,424
	c47.4,1.4,78,20.6,97,56c5,9.2,7.6,19.7,10,32c3.1,15.7,1,40.4-2,50c-14.3,46.3-42.1,66-76,75c-20.1,5.3-48.1,3.7-65-2
	c-33.7-11.4-56.7-32-68.5-69.6c-10.9-35.1-0.3-60.8,2.5-73.4c9.2-24.9,24.8-44.6,53-58C1054.6,432.5,1070.8,423.7,1099,424z
	 M1099,454c-13,0-26.3,2.5-32,5c-16.4,7.2-34.2,25.1-41,46c-11.6,35.8,3.2,75.3,23,90c7.6,5.6,15,9.4,25,13c9.7,3.5,35.2,4.4,43,2
	c36.4-11.3,52.5-32,58-66c2.2-13.4-2.6-40-8-50C1152.8,467.9,1133,454.4,1099,454z"/>
</svg>
